<svg width="64" height="64" viewBox="275 17 70 70" fill="none" xmlns="http://www.w3.org/2000/svg">
<path d="M306.316 54.8437C306.606 54.8437 306.86 54.9533 307.053 55.1259L308.009 55.1249L306.961 57.3915L297.172 82.3105C296.047 84.3735 293.797 84.3735 292.672 82.3105L282.439 58.2626L281.003 55.1542L281.913 55.1523C282.11 54.9632 282.378 54.8437 282.683 54.8437H306.316Z" fill="#CE994E"/>
<mask id="mask3_18_133" style="mask-type:alpha" maskUnits="userSpaceOnUse" x="281" y="54" width="28" height="30">
<path d="M306.316 54.8437C306.606 54.8437 306.86 54.9533 307.053 55.1259L308.009 55.1249L306.961 57.3915L297.172 82.3105C296.047 84.3735 293.797 84.3735 292.672 82.3105L282.439 58.2626L281.003 55.1542L281.913 55.1523C282.11 54.9632 282.378 54.8437 282.683 54.8437H306.316Z" fill="#D9D9D9"/>
</mask>
<g mask="url(#mask3_18_133)">
<path d="M296.749 67.4994C298.769 60.9345 299.562 56.4374 298.999 53.4375H310.811L302.374 84.3738L295.624 85.4987C293.375 82.8738 294.499 74.8116 296.749 67.4994Z" fill="#9B6A27"/>
</g>
<ellipse cx="294.499" cy="55.125" rx="13.4995" ry="1.12496" fill="#77511C"/>
<path d="M306.554 55.831C303.103 55.8805 298.237 55.3356 292.957 54.1323C291.257 53.7448 289.625 53.3136 288.09 52.8569L289.606 46.2081L290.078 46.2967L307.453 49.5425L307.965 49.6382L306.554 55.831Z" fill="#D3C4A7"/>
<path d="M279.141 49.5177C276.995 48.4139 275.657 47.3589 275.457 46.5335C274.705 44.2934 276.219 40.5335 277.02 40.3823C278.396 40.125 279.853 39.9559 281.339 39.8744L279.141 49.5177Z" fill="#D3C4A7"/>
<path d="M280.444 41.9225L290.447 44.5477L290.915 44.6704L288.982 53.1502C284.483 51.9027 280.698 50.4058 278.294 49.0297L279.944 41.7915L280.444 41.9225Z" fill="#EBE3D1"/>
<path d="M308.926 46.2956C310.157 46.9828 311.329 47.7296 312.4 48.5155C313.031 48.9817 312.809 52.747 311.321 54.5376C310.656 56.093 304.493 56.3089 296.673 54.9563C297.187 54.8591 297.698 54.7539 298.199 54.638C300.137 54.1897 301.922 53.6023 303.317 52.8507C304.72 52.094 305.659 51.2078 306.023 50.1972C306.713 48.2784 307.768 47.0462 308.926 46.2956Z" fill="#C8B797"/>
<path d="M295.305 41.703C300.215 42.822 304.558 44.2238 307.607 45.5784C309.135 46.2574 310.315 46.9142 311.076 47.5039C311.458 47.7996 311.712 48.0604 311.856 48.2784C311.998 48.4957 312.002 48.6205 311.988 48.6822C311.974 48.7438 311.917 48.8546 311.694 48.9887C311.47 49.1232 311.128 49.2491 310.656 49.3501C309.714 49.5516 308.366 49.6325 306.695 49.5822C303.359 49.4817 298.838 48.8633 293.928 47.7444C289.018 46.6254 284.675 45.2235 281.626 43.8688C280.097 43.1898 278.918 42.533 278.156 41.9432C277.774 41.6474 277.521 41.3859 277.377 41.1678C277.234 40.9502 277.231 40.8256 277.245 40.764C277.259 40.7024 277.316 40.5914 277.539 40.4575C277.763 40.3231 278.105 40.198 278.577 40.097C279.519 39.8956 280.866 39.8146 282.538 39.865C285.873 39.9655 290.395 40.584 295.305 41.703Z" fill="#E6DAC2" stroke="#FFFDF8"/>
<path d="M281.929 40.8254C283.556 40.3968 287.064 40.7833 288.614 41.03C288.087 40.8099 284.812 40.3233 284.713 40.3207C284.614 40.3181 279.226 39.7497 279.185 41.2394C279.153 42.4311 281.313 43.4098 282.397 43.7502C281.811 43.4967 280.584 42.8453 280.365 42.2677C280.091 41.5458 280.465 41.1313 281.929 40.8254Z" fill="#BEDEF6"/>
<path d="M309.295 40.5452C306.207 41.6249 301.659 42.5942 296.538 43.0925C294.885 43.2534 293.28 43.354 291.756 43.4019L291.128 36.95L291.604 36.884L308.195 34.6072L308.71 34.5365L309.295 40.5452Z" fill="#4A3305"/>
<path d="M282.766 43.0786C280.493 42.7287 278.966 42.1794 278.536 41.4955C277.189 39.7069 277.426 35.8713 278.101 35.4967C279.269 34.85 280.537 34.2598 281.857 33.7399L282.766 43.0786Z" fill="#4A3305"/>
<path d="M281.638 35.8312L291.415 35.2007L291.897 35.1694L292.698 43.3981C288.254 43.6249 284.382 43.4076 281.805 42.8843L281.122 35.8647L281.638 35.8312Z" fill="#896213"/>
<path d="M308.523 31.2679C309.845 31.5183 311.13 31.8405 312.337 32.2293C313.044 32.4575 313.97 35.9129 313.167 37.9679C313.031 39.5698 307.52 41.6142 300.05 42.7333C300.504 42.4816 300.952 42.2236 301.387 41.9576C302.995 40.9757 304.422 39.9151 305.449 38.8249C306.482 37.7272 307.056 36.6567 307.081 35.649C307.127 33.7182 307.707 32.2931 308.523 31.2679Z" fill="#2A1D03"/>
<path d="M294.935 31.2438C299.683 30.7818 304.004 30.7434 307.149 31.0492C308.725 31.2025 309.979 31.4397 310.838 31.7411C311.268 31.8922 311.57 32.0501 311.761 32.2006C311.952 32.3506 311.986 32.456 311.991 32.506C311.996 32.5558 311.982 32.6657 311.825 32.8499C311.666 33.0346 311.4 33.2485 311.007 33.4799C310.223 33.9411 309.038 34.4157 307.52 34.87C304.494 35.7763 300.246 36.5719 295.499 37.0338C290.752 37.4958 286.431 37.5341 283.286 37.2283C281.71 37.075 280.456 36.8378 279.597 36.5364C279.167 36.3852 278.865 36.2266 278.674 36.0759C278.483 35.9256 278.449 35.8204 278.444 35.7706C278.439 35.7206 278.453 35.6105 278.61 35.4266C278.769 35.2421 279.035 35.0288 279.428 34.7976C280.212 34.3364 281.397 33.8618 282.915 33.4075C285.941 32.5012 290.188 31.7058 294.935 31.2438Z" fill="#5D430F" stroke="#896213"/>
<path d="M283.329 34.4621C284.565 33.7943 287.565 33.2194 288.911 33.0154C288.418 32.9949 285.584 33.4487 285.502 33.4704C285.419 33.4922 280.817 34.3918 281.167 35.3844C281.448 36.1785 283.487 36.3131 284.471 36.2812C283.921 36.2526 282.738 36.1131 282.408 35.7838C281.996 35.3722 282.198 35.0103 283.329 34.4621Z" fill="#F1E0BD"/>
<path d="M308.182 34.8477C305.091 34.8985 300.714 34.4126 295.962 33.3296C294.422 32.9787 292.944 32.5878 291.557 32.1735L292.923 26.1778L293.396 26.2665L308.943 29.1707L309.454 29.2662L308.182 34.8477Z" fill="#D3C4A7"/>
<path d="M283.649 29.2243C281.968 28.3647 280.833 27.5377 280.436 26.8485C280.434 26.8447 280.432 26.8408 280.43 26.837C280.369 26.7298 280.326 26.6265 280.302 26.5265C279.633 24.5217 280.986 21.1611 281.702 21.0262C282.95 20.7928 284.273 20.641 285.621 20.5692L283.649 29.2243Z" fill="#D3C4A7"/>
<path d="M284.779 22.3531L293.729 24.7023L294.197 24.825L292.456 32.464C288.378 31.3369 284.952 29.9804 282.795 28.7367L284.279 22.2221L284.779 22.3531Z" fill="#EBE3D1"/>
<path d="M310.199 26.2894C311.319 26.9119 312.384 27.5893 313.357 28.3032C313.922 28.7183 313.724 32.0885 312.392 33.6913C311.793 35.0928 306.204 35.2797 299.136 34.0406C299.643 33.9467 300.146 33.8442 300.639 33.7301C302.371 33.3296 303.964 32.8049 305.206 32.1356C306.456 31.4614 307.283 30.6773 307.602 29.7911C308.219 28.0763 309.161 26.9688 310.199 26.2894Z" fill="#C8B797"/>
<path d="M298.051 22.2592C302.441 23.2598 306.323 24.5128 309.048 25.7231C310.414 26.33 311.466 26.916 312.142 27.4399C312.482 27.7027 312.704 27.9317 312.828 28.12C312.951 28.3071 312.946 28.4041 312.938 28.4406C312.93 28.4766 312.892 28.5661 312.7 28.6817C312.506 28.7978 312.207 28.9088 311.787 28.9986C310.95 29.1776 309.749 29.2501 308.254 29.2051C305.274 29.1153 301.233 28.5624 296.842 27.5617C292.451 26.561 288.569 25.3081 285.845 24.0977C284.479 23.4909 283.427 22.9049 282.75 22.3809C282.411 22.1181 282.19 21.8884 282.066 21.7001C281.943 21.5122 281.947 21.4154 281.955 21.3793C281.963 21.343 282.002 21.2537 282.194 21.1384C282.387 21.0225 282.686 20.912 283.106 20.8222C283.943 20.6433 285.144 20.5707 286.638 20.6157C289.618 20.7055 293.66 21.2585 298.051 22.2592Z" fill="#E6DAC2" stroke="#FFFDF8"/>
<path d="M287.17 22.0931C288.324 21.935 290.869 22.2976 291.997 22.4986C291.608 22.3571 289.226 21.9511 289.154 21.9453C289.083 21.9396 285.175 21.3962 285.211 22.194C285.24 22.8322 286.841 23.453 287.637 23.6837C287.203 23.5217 286.29 23.1178 286.107 22.7981C285.878 22.3985 286.128 22.1925 287.17 22.0931Z" fill="#FFFDF8"/>
</svg>