<svg width="150" height="150" viewBox="0 0 150 150" fill="none" xmlns="http://www.w3.org/2000/svg">
  <svg x="40" y="35" width="70" height="70" viewBox="103 17 70 70" opacity="0.9">
<path d="M150.316 53.8437C150.606 53.8437 150.86 53.9533 151.053 54.1259L152.009 54.1249L150.961 56.3915L141.172 81.3105C140.047 83.3735 137.797 83.3735 136.672 81.3105L126.439 57.2626L125.003 54.1542L125.913 54.1523C126.11 53.9632 126.378 53.8437 126.683 53.8437H150.316Z" fill="#CE994E"/>
<mask id="mask2_18_133" style="mask-type:alpha" maskUnits="userSpaceOnUse" x="125" y="53" width="28" height="30">
<path d="M150.316 53.8437C150.606 53.8437 150.86 53.9533 151.053 54.1259L152.009 54.1249L150.961 56.3915L141.172 81.3105C140.047 83.3735 137.797 83.3735 136.672 81.3105L126.439 57.2626L125.003 54.1542L125.913 54.1523C126.11 53.9632 126.378 53.8437 126.683 53.8437H150.316Z" fill="#D9D9D9"/>
</mask>
<g mask="url(#mask2_18_133)">
<path d="M140.749 66.4994C142.769 59.9345 143.562 55.4374 142.999 52.4375H154.811L146.374 83.3738L139.624 84.4987C137.375 81.8738 138.499 73.8116 140.749 66.4994Z" fill="#9B6A27"/>
</g>
<ellipse cx="138.499" cy="54.125" rx="13.4995" ry="1.12496" fill="#77511C"/>
<path d="M150.555 54.8312C147.104 54.8806 142.238 54.3358 136.958 53.1325C135.257 52.745 133.626 52.3138 132.091 51.8571L133.606 45.2082L134.079 45.2969L151.454 48.5427L151.966 48.6384L150.555 54.8312Z" fill="#D3C4A7"/>
<path d="M123.142 48.518C120.996 47.4144 119.658 46.3599 119.456 45.5345C118.704 43.2946 120.219 39.5331 121.02 39.3814C122.396 39.1241 123.854 38.9561 125.34 38.8746L123.142 48.518Z" fill="#D3C4A7"/>
<path d="M124.445 40.9227L134.447 43.5479L134.915 43.6706L132.983 52.1504C128.484 50.903 124.699 49.4068 122.295 48.0309L123.945 40.7917L124.445 40.9227Z" fill="#EBE3D1"/>
<path d="M152.928 45.296C154.158 45.9828 155.329 46.729 156.4 47.5145C157.032 47.9785 156.81 51.7453 155.322 53.5368C154.659 55.093 148.495 55.3094 140.674 53.9565C141.188 53.8592 141.698 53.7541 142.2 53.6382C144.138 53.1899 145.923 52.6025 147.318 51.8508C148.721 51.0942 149.66 50.208 150.024 49.1973C150.714 47.2783 151.769 46.0466 152.928 45.296Z" fill="#C8B797"/>
<path d="M139.306 40.7031C144.216 41.8221 148.558 43.2239 151.608 44.5785C153.136 45.2575 154.316 45.9143 155.077 46.5041C155.459 46.7998 155.713 47.0605 155.856 47.2786C155.999 47.4959 156.003 47.6206 155.989 47.6823C155.975 47.7439 155.918 47.8547 155.694 47.9889C155.471 48.1233 155.129 48.2492 154.656 48.3503C153.714 48.5517 152.367 48.6327 150.695 48.5823C147.36 48.4818 142.839 47.8634 137.929 46.7445C133.019 45.6255 128.676 44.2236 125.626 42.8689C124.098 42.1899 122.919 41.5331 122.157 40.9434C121.775 40.6475 121.521 40.386 121.378 40.1679C121.235 39.9503 121.232 39.8257 121.246 39.7641C121.26 39.7025 121.317 39.5915 121.54 39.4576C121.764 39.3233 122.105 39.1982 122.578 39.0971C123.52 38.8957 124.867 38.8147 126.539 38.8651C129.874 38.9656 134.396 39.5841 139.306 40.7031Z" fill="#E6DAC2" stroke="#FFFDF8"/>
<path d="M125.929 39.8255C127.557 39.3969 131.065 39.7834 132.615 40.0302C132.088 39.81 128.812 39.3234 128.713 39.3208C128.614 39.3182 123.227 38.7498 123.186 40.2395C123.153 41.4312 125.314 42.4099 126.398 42.7503C125.812 42.4968 124.585 41.8454 124.366 41.2678C124.092 40.5459 124.465 40.1314 125.929 39.8255Z" fill="#BEDEF6"/>
<path d="M153.296 39.5452C150.208 40.6248 145.659 41.5942 140.539 42.0925C138.885 42.2534 137.28 42.3539 135.756 42.4019L135.129 35.95L135.605 35.884L152.196 33.6072L152.711 33.5365L153.296 39.5452Z" fill="#4A3305"/>
<path d="M126.766 42.0786C124.491 41.7282 122.962 41.1788 122.534 40.4937C121.19 38.7049 121.427 34.8748 122.101 34.4977C123.268 33.851 124.537 33.2598 125.857 32.7399L126.766 42.0786Z" fill="#4A3305"/>
<path d="M125.638 34.8312L135.415 34.2007L135.898 34.1694L136.698 42.3971C132.254 42.624 128.383 42.4076 125.805 41.8843L125.122 34.8647L125.638 34.8312Z" fill="#896213"/>
<path d="M152.523 30.269C153.845 30.5195 155.131 30.8412 156.338 31.2302C157.045 31.4601 157.972 34.9144 157.168 36.9688C157.031 38.5707 151.52 40.6144 144.05 41.7334C144.505 41.4816 144.952 41.2236 145.388 40.9576C146.995 39.9757 148.423 38.9151 149.449 37.8249C150.483 36.7272 151.056 35.6567 151.081 34.649C151.128 32.7189 151.707 31.2941 152.523 30.269Z" fill="#2A1D03"/>
<path d="M138.936 30.2438C143.683 29.7818 148.005 29.7434 151.149 30.0492C152.725 30.2025 153.98 30.4397 154.838 30.7411C155.268 30.8922 155.571 31.0501 155.762 31.2006C155.952 31.3506 155.987 31.456 155.992 31.506C155.997 31.5558 155.983 31.6657 155.825 31.8499C155.667 32.0346 155.4 32.2485 155.007 32.4799C154.223 32.9411 153.038 33.4157 151.521 33.87C148.495 34.7763 144.246 35.5719 139.499 36.0338C134.752 36.4958 130.431 36.5341 127.287 36.2283C125.711 36.075 124.456 35.8378 123.598 35.5364C123.167 35.3852 122.865 35.2266 122.674 35.0759C122.483 34.9256 122.449 34.8204 122.444 34.7706C122.439 34.7206 122.453 34.6105 122.611 34.4266C122.769 34.2421 123.036 34.0288 123.429 33.7976C124.213 33.3364 125.398 32.8618 126.915 32.4075C129.941 31.5012 134.189 30.7058 138.936 30.2438Z" fill="#5D430F" stroke="#896213"/>
<path d="M127.33 33.4621C128.565 32.7943 131.566 32.2194 132.912 32.0154C132.419 31.9949 129.585 32.4487 129.502 32.4704C129.419 32.4922 124.817 33.3918 125.168 34.3844C125.448 35.1785 127.487 35.3131 128.472 35.2812C127.922 35.2526 126.739 35.1131 126.409 34.7838C125.996 34.3722 126.198 34.0103 127.33 33.4621Z" fill="#F1E0BD"/>
<path d="M152.182 33.8477C149.091 33.8985 144.714 33.4126 139.962 32.3296C138.422 31.9787 136.944 31.5878 135.557 31.1735L136.923 25.1778L137.396 25.2665L152.943 28.1707L153.454 28.2662L152.182 33.8477Z" fill="#D3C4A7"/>
<path d="M127.649 28.2243C125.968 27.3647 124.833 26.5377 124.436 25.8485C124.434 25.8447 124.432 25.8408 124.43 25.837C124.369 25.7298 124.326 25.6265 124.302 25.5265C123.633 23.5217 124.986 20.1611 125.702 20.0262C126.95 19.7928 128.273 19.641 129.621 19.5692L127.649 28.2243Z" fill="#D3C4A7"/>
<path d="M128.779 21.3531L137.729 23.7023L138.197 23.825L136.456 31.464C132.378 30.3369 128.952 28.9804 126.795 27.7367L128.279 21.2221L128.779 21.3531Z" fill="#EBE3D1"/>
<path d="M154.199 25.2894C155.319 25.9119 156.384 26.5893 157.357 27.3032C157.922 27.7183 157.724 31.0885 156.392 32.6913C155.793 34.0928 150.204 34.2797 143.136 33.0406C143.643 32.9467 144.146 32.8442 144.639 32.7301C146.371 32.3296 147.964 31.8049 149.206 31.1356C150.456 30.4614 151.283 29.6773 151.602 28.7911C152.219 27.0763 153.161 25.9688 154.199 25.2894Z" fill="#C8B797"/>
<path d="M142.051 21.2592C146.441 22.2598 150.323 23.5128 153.048 24.7231C154.414 25.33 155.466 25.916 156.142 26.4399C156.482 26.7027 156.704 26.9317 156.828 27.12C156.951 27.3071 156.946 27.4041 156.938 27.4406C156.93 27.4766 156.892 27.5661 156.7 27.6817C156.506 27.7978 156.207 27.9088 155.787 27.9986C154.95 28.1776 153.749 28.2501 152.254 28.2051C149.274 28.1153 145.233 27.5624 140.842 26.5617C136.451 25.561 132.569 24.3081 129.845 23.0977C128.479 22.4909 127.427 21.9049 126.75 21.3809C126.411 21.1181 126.19 20.8884 126.066 20.7001C125.943 20.5122 125.947 20.4154 125.955 20.3793C125.963 20.343 126.002 20.2537 126.194 20.1384C126.387 20.0225 126.686 19.912 127.106 19.8222C127.943 19.6433 129.144 19.5707 130.638 19.6157C133.618 19.7055 137.66 20.2585 142.051 21.2592Z" fill="#E6DAC2" stroke="#FFFDF8"/>
<path d="M131.17 21.0931C132.324 20.935 134.869 21.2976 135.997 21.4986C135.608 21.3571 133.226 20.9511 133.154 20.9453C133.083 20.9396 129.175 20.3962 129.211 21.194C129.24 21.8322 130.841 22.453 131.637 22.6837C131.203 22.5217 130.29 22.1178 130.107 21.7981C129.878 21.3985 130.128 21.1925 131.17 21.0931Z" fill="#FFFDF8"/>
<path d="M108 43.5V41L118 42.5L108 43.5Z" fill="#6E4A03"/>
<path d="M169.174 29L170.169 31.2935L160.398 33.8976L169.174 29Z" fill="#6E4A03"/>
<path d="M107.5 37L106 40L117 41.5L107.5 37Z" fill="#6E4A03"/>
<path d="M169.546 34.3037L169.688 32.3761L159 35.3783L169.546 34.3037Z" fill="#6E4A03"/>
  </svg>
</svg>