<svg width="64" height="64" viewBox="204 17 70 70" fill="none" xmlns="http://www.w3.org/2000/svg">
<path d="M237.316 54.8437C237.606 54.8437 237.86 54.9533 238.053 55.1259L239.009 55.1249L237.961 57.3915L228.172 82.3105C227.047 84.3735 224.797 84.3735 223.672 82.3105L213.439 58.2626L212.003 55.1542L212.913 55.1523C213.11 54.9632 213.378 54.8437 213.683 54.8437H237.316Z" fill="#F2B741"/>
<mask id="mask1_18_133" style="mask-type:alpha" maskUnits="userSpaceOnUse" x="212" y="54" width="28" height="30">
<path d="M237.316 54.8437C237.606 54.8437 237.86 54.9533 238.053 55.1259L239.009 55.1249L237.961 57.3915L228.172 82.3105C227.047 84.3735 224.797 84.3735 223.672 82.3105L213.439 58.2626L212.003 55.1542L212.913 55.1523C213.11 54.9632 213.378 54.8437 213.683 54.8437H237.316Z" fill="#D9D9D9"/>
</mask>
<g mask="url(#mask1_18_133)">
<path d="M227.749 67.4994C229.769 60.9345 230.562 56.4374 229.999 53.4375H241.811L233.374 84.3738L226.624 85.4987C224.375 82.8738 225.499 74.8116 227.749 67.4994Z" fill="#C18817"/>
</g>
<ellipse cx="225.499" cy="55.125" rx="13.4995" ry="1.12496" fill="#9A6A0A"/>
<path d="M237.555 55.8312C234.104 55.8806 229.238 55.3358 223.958 54.1325C222.257 53.745 220.626 53.3138 219.091 52.8571L220.606 46.2082L221.079 46.2969L238.454 49.5427L238.966 49.6384L237.555 55.8312Z" fill="#6CA1C9"/>
<path d="M210.142 49.518C207.996 48.4144 206.658 47.3599 206.456 46.5345C205.704 44.2946 207.219 40.5331 208.02 40.3814C209.396 40.1241 210.854 39.9561 212.34 39.8746L210.142 49.518Z" fill="#6CA1C9"/>
<path d="M211.445 41.9227L221.447 44.5479L221.915 44.6706L219.983 53.1504C215.484 51.903 211.699 50.4068 209.295 49.0309L210.945 41.7917L211.445 41.9227Z" fill="#A0CEF0"/>
<path d="M239.928 46.296C241.158 46.9828 242.329 47.729 243.4 48.5145C244.032 48.9785 243.81 52.7453 242.322 54.5368C241.659 56.093 235.495 56.3094 227.674 54.9565C228.188 54.8592 228.698 54.7541 229.2 54.6382C231.138 54.1899 232.923 53.6025 234.318 52.8508C235.721 52.0942 236.66 51.208 237.024 50.1973C237.714 48.2783 238.769 47.0466 239.928 46.296Z" fill="#436B89"/>
<path d="M226.306 41.7031C231.216 42.8221 235.558 44.2239 238.608 45.5785C240.136 46.2575 241.316 46.9143 242.077 47.5041C242.459 47.7998 242.713 48.0605 242.856 48.2786C242.999 48.4959 243.003 48.6206 242.989 48.6823C242.975 48.7439 242.918 48.8547 242.694 48.9889C242.471 49.1233 242.129 49.2492 241.656 49.3503C240.714 49.5517 239.367 49.6327 237.695 49.5823C234.36 49.4818 229.839 48.8634 224.929 47.7445C220.019 46.6255 215.676 45.2236 212.626 43.8689C211.098 43.1899 209.919 42.5331 209.157 41.9434C208.775 41.6475 208.521 41.386 208.378 41.1679C208.235 40.9503 208.232 40.8257 208.246 40.7641C208.26 40.7025 208.317 40.5915 208.54 40.4576C208.764 40.3233 209.105 40.1982 209.578 40.0971C210.52 39.8957 211.867 39.8147 213.539 39.8651C216.874 39.9656 221.396 40.5841 226.306 41.7031Z" fill="#76B2DE" stroke="#A0CEF0"/>
<path d="M212.929 40.8255C214.557 40.3969 218.065 40.7834 219.615 41.0302C219.088 40.81 215.812 40.3234 215.713 40.3208C215.614 40.3182 210.227 39.7498 210.186 41.2395C210.153 42.4312 212.314 43.4099 213.398 43.7503C212.812 43.4968 211.585 42.8454 211.366 42.2678C211.092 41.5459 211.465 41.1314 212.929 40.8255Z" fill="#BEDEF6"/>
<path d="M240.296 40.5452C237.208 41.6248 232.659 42.5942 227.539 43.0925C225.885 43.2534 224.28 43.3539 222.756 43.4019L222.129 36.95L222.605 36.884L239.196 34.6072L239.711 34.5365L240.296 40.5452Z" fill="#C16299"/>
<path d="M213.766 43.0786C211.491 42.7282 209.962 42.1788 209.534 41.4937C208.19 39.7049 208.427 35.8748 209.101 35.4977C210.268 34.851 211.537 34.2598 212.857 33.7399L213.766 43.0786Z" fill="#C16299"/>
<path d="M212.638 35.8312L222.415 35.2007L222.898 35.1694L223.698 43.3971C219.254 43.624 215.383 43.4076 212.805 42.8843L212.122 35.8647L212.638 35.8312Z" fill="#F789C8"/>
<path d="M239.523 31.269C240.845 31.5195 242.131 31.8412 243.338 32.2302C244.045 32.4601 244.972 35.9144 244.168 37.9688C244.031 39.5707 238.52 41.6144 231.05 42.7334C231.505 42.4816 231.952 42.2236 232.388 41.9576C233.995 40.9757 235.423 39.9151 236.449 38.8249C237.483 37.7272 238.056 36.6567 238.081 35.649C238.128 33.7189 238.707 32.2941 239.523 31.269Z" fill="#76365B"/>
<path d="M225.936 31.2438C230.683 30.7818 235.005 30.7434 238.149 31.0492C239.725 31.2025 240.98 31.4397 241.838 31.7411C242.268 31.8922 242.571 32.0501 242.762 32.2006C242.952 32.3506 242.987 32.456 242.992 32.506C242.997 32.5558 242.983 32.6657 242.825 32.8499C242.667 33.0346 242.4 33.2485 242.007 33.4799C241.223 33.9411 240.038 34.4157 238.521 34.87C235.495 35.7763 231.246 36.5719 226.499 37.0338C221.752 37.4958 217.431 37.5341 214.287 37.2283C212.711 37.075 211.456 36.8378 210.598 36.5364C210.167 36.3852 209.865 36.2266 209.674 36.0759C209.483 35.9256 209.449 35.8204 209.444 35.7706C209.439 35.7206 209.453 35.6105 209.611 35.4266C209.769 35.2421 210.036 35.0288 210.429 34.7976C211.213 34.3364 212.398 33.8618 213.915 33.4075C216.941 32.5012 221.189 31.7058 225.936 31.2438Z" fill="#DE76B2" stroke="#F789C8"/>
<path d="M214.33 34.4621C215.565 33.7943 218.566 33.2194 219.912 33.0154C219.419 32.9949 216.585 33.4487 216.502 33.4704C216.419 33.4922 211.817 34.3918 212.168 35.3844C212.448 36.1785 214.487 36.3131 215.472 36.2812C214.922 36.2526 213.739 36.1131 213.409 35.7838C212.996 35.3722 213.198 35.0103 214.33 34.4621Z" fill="#FFB8E1"/>
<path d="M239.182 34.8477C236.091 34.8985 231.714 34.4126 226.962 33.3296C225.422 32.9787 223.944 32.5878 222.557 32.1735L223.923 26.1778L224.396 26.2665L239.943 29.1707L240.454 29.2662L239.182 34.8477Z" fill="#B2DE76"/>
<path d="M214.649 29.2243C212.968 28.3647 211.833 27.5377 211.436 26.8485C211.434 26.8447 211.432 26.8408 211.43 26.837C211.369 26.7298 211.326 26.6265 211.302 26.5265C210.633 24.5217 211.986 21.1611 212.702 21.0262C213.95 20.7928 215.273 20.641 216.621 20.5692L214.649 29.2243Z" fill="#B2DE76"/>
<path d="M215.779 22.3531L224.729 24.7023L225.197 24.825L223.456 32.464C219.378 31.3369 215.952 29.9804 213.795 28.7367L215.279 22.2221L215.779 22.3531Z" fill="#D2FB9B"/>
<path d="M241.199 26.2894C242.319 26.9119 243.384 27.5893 244.357 28.3032C244.922 28.7183 244.724 32.0885 243.392 33.6913C242.793 35.0928 237.204 35.2797 230.136 34.0406C230.643 33.9467 231.146 33.8442 231.639 33.7301C233.371 33.3296 234.964 32.8049 236.206 32.1356C237.456 31.4614 238.283 30.6773 238.602 29.7911C239.219 28.0763 240.161 26.9688 241.199 26.2894Z" fill="#6F9739"/>
<path d="M229.051 22.2592C233.441 23.2598 237.323 24.5128 240.048 25.7231C241.414 26.33 242.466 26.916 243.142 27.4399C243.482 27.7027 243.704 27.9317 243.828 28.12C243.951 28.3071 243.946 28.4041 243.938 28.4406C243.93 28.4766 243.892 28.5661 243.7 28.6817C243.506 28.7978 243.207 28.9088 242.787 28.9986C241.95 29.1776 240.749 29.2501 239.254 29.2051C236.274 29.1153 232.233 28.5624 227.842 27.5617C223.451 26.561 219.569 25.3081 216.845 24.0977C215.479 23.4909 214.427 22.9049 213.75 22.3809C213.411 22.1181 213.19 21.8884 213.066 21.7001C212.943 21.5122 212.947 21.4154 212.955 21.3793C212.963 21.343 213.002 21.2537 213.194 21.1384C213.387 21.0225 213.686 20.912 214.106 20.8222C214.943 20.6433 216.144 20.5707 217.638 20.6157C220.618 20.7055 224.66 21.2585 229.051 22.2592Z" fill="#B2DE76" stroke="#D2FB9B"/>
<path d="M217.094 21.4227C218.55 21.0393 221.689 21.385 223.076 21.6058C222.604 21.4089 219.674 20.9734 219.585 20.9711C219.497 20.9688 214.676 20.4603 214.64 21.7931C214.61 22.8594 216.544 23.7351 217.514 24.0396C216.989 23.8128 215.891 23.2299 215.695 22.7132C215.45 22.0673 215.784 21.6964 217.094 21.4227Z" fill="#E5FAC8"/>
</svg>