<svg width="150" height="150" viewBox="0 0 150 150" fill="none" xmlns="http://www.w3.org/2000/svg">
  <svg x="40" y="35" width="70" height="70" viewBox="10 17 70 70" opacity="0.9">
<path d="M57.3158 53.8437C57.6057 53.8437 57.8598 53.9533 58.0531 54.1259L59.0092 54.1249L57.9613 56.3915L48.1722 81.3105C47.0473 83.3735 44.7972 83.3735 43.6722 81.3105L33.4388 57.2626L32.0033 54.1542L32.9135 54.1523C33.1101 53.9632 33.3775 53.8437 33.683 53.8437H57.3158Z" fill="#F2B741"/>
<mask id="mask0_18_133" style="mask-type:alpha" maskUnits="userSpaceOnUse" x="32" y="53" width="28" height="30">
<path d="M57.3158 53.8437C57.6057 53.8437 57.8598 53.9533 58.0531 54.1259L59.0092 54.1249L57.9613 56.3915L48.1722 81.3105C47.0473 83.3735 44.7972 83.3735 43.6722 81.3105L33.4388 57.2626L32.0033 54.1542L32.9135 54.1523C33.1101 53.9632 33.3775 53.8437 33.683 53.8437H57.3158Z" fill="#D9D9D9"/>
</mask>
<g mask="url(#mask0_18_133)">
<path d="M47.7494 66.4994C49.7694 59.9345 50.5618 55.4374 49.9993 52.4375H61.8113L53.3742 83.3738L46.6245 84.4987C44.3746 81.8738 45.4995 73.8116 47.7494 66.4994Z" fill="#C18817"/>
</g>
<ellipse cx="45.4995" cy="54.125" rx="13.4995" ry="1.12496" fill="#9A6A0A"/>
<path d="M57.5543 54.831C54.1037 54.8805 49.2371 54.3357 43.957 53.1324C42.2569 52.7449 40.6251 52.3137 39.0904 51.857L40.6058 45.2081L41.0783 45.2968L58.4536 48.5426L58.9657 48.6383L57.5543 54.831Z" fill="#6CA1C9"/>
<path d="M30.1415 48.5178C27.9888 47.411 26.6492 46.3534 26.4542 45.5269C25.7078 43.2862 27.2198 39.5338 28.0198 39.3824C29.3958 39.1251 30.8535 38.956 32.3393 38.8744L30.1415 48.5178Z" fill="#6CA1C9"/>
<path d="M31.4442 40.9225L41.4469 43.5478L41.9147 43.6704L39.9821 52.1503C35.4827 50.9028 31.6983 49.4059 29.2946 48.0298L30.9442 40.7916L31.4442 40.9225Z" fill="#A0CEF0"/>
<path d="M59.9266 45.2956C61.1575 45.9828 62.3289 46.7297 63.4 47.5155C64.0314 47.9818 63.8089 51.7471 62.321 53.5377C61.6566 55.093 55.4929 55.309 47.6732 53.9563C48.1875 53.8591 48.6977 53.754 49.1991 53.638C51.1373 53.1897 52.9227 52.6024 54.317 51.8507C55.7204 51.0941 56.6595 50.2079 57.0231 49.1972C57.7136 47.2785 58.7681 46.0463 59.9266 45.2956Z" fill="#436B89"/>
<path d="M46.3054 40.703C51.2151 41.822 55.5578 43.2238 58.6073 44.5784C60.1356 45.2574 61.315 45.9142 62.0767 46.5039C62.4586 46.7996 62.7122 47.0604 62.8557 47.2784C62.9986 47.4957 63.002 47.6205 62.988 47.6822C62.974 47.7438 62.9171 47.8546 62.6938 47.9887C62.47 48.1232 62.1285 48.2491 61.6559 48.3501C60.7139 48.5516 59.3664 48.6325 57.6948 48.5822C54.3594 48.4817 49.8383 47.8633 44.9285 46.7444C40.0186 45.6254 35.6753 44.2235 32.6257 42.8688C31.0974 42.1898 29.918 41.533 29.1563 40.9432C28.7742 40.6474 28.5209 40.3859 28.3775 40.1678C28.2344 39.9502 28.2311 39.8256 28.2451 39.764C28.2593 39.7024 28.3164 39.5914 28.5394 39.4575C28.7632 39.3231 29.1047 39.198 29.577 39.097C30.5191 38.8956 31.8665 38.8146 33.5382 38.865C36.8736 38.9655 41.3955 39.584 46.3054 40.703Z" fill="#76B2DE" stroke="#A0CEF0"/>
<path d="M32.9288 39.8254C34.5562 39.3968 38.064 39.7833 39.6145 40.03C39.0871 39.8099 35.8119 39.3233 35.7128 39.3207C35.6138 39.3181 30.226 38.7497 30.1852 40.2394C30.1527 41.4311 32.3132 42.4098 33.3975 42.7502C32.8113 42.4967 31.584 41.8453 31.3651 41.2677C31.0914 40.5458 31.4648 40.1313 32.9288 39.8254Z" fill="#BEDEF6"/>
<path d="M60.2956 39.5462C57.2079 40.6259 52.6593 41.5942 47.5389 42.0925C45.8852 42.2534 44.2803 42.354 42.7564 42.4019L42.1285 35.95L42.6048 35.884L59.1957 33.6072L59.7108 33.5365L60.2956 39.5462Z" fill="#C16299"/>
<path d="M33.7666 42.0795C31.4897 41.7292 29.9608 41.1784 29.5335 40.4928C28.1895 38.7033 28.4268 34.8723 29.1011 34.4967C30.2686 33.8499 31.5373 33.2598 32.8578 32.7399L33.7666 42.0795Z" fill="#C16299"/>
<path d="M32.6382 34.8312L42.415 34.2007L42.8977 34.1694L43.6983 42.3971C39.2542 42.6241 35.3829 42.4074 32.8055 41.8843L32.1224 34.8647L32.6382 34.8312Z" fill="#F789C8"/>
<path d="M59.5238 30.2689C60.8455 30.5193 62.1309 30.8414 63.337 31.2303C64.0441 31.4584 64.9704 34.9116 64.168 36.9668C64.0349 38.5691 58.5216 40.615 51.0486 41.7345C51.5033 41.4824 51.9518 41.224 52.3879 40.9576C53.9952 39.9757 55.4227 38.9151 56.4492 37.8249C57.4827 36.7272 58.0564 35.6567 58.0809 34.649C58.1278 32.7186 58.7073 31.294 59.5238 30.2689Z" fill="#76365B"/>
<path d="M45.9357 30.2438C50.6829 29.7818 55.0048 29.7434 58.1491 30.0492C59.7252 30.2025 60.9798 30.4397 61.8379 30.7411C62.2682 30.8922 62.5708 31.0501 62.7618 31.2006C62.9519 31.3506 62.9867 31.456 62.9917 31.506C62.9965 31.5558 62.9829 31.6657 62.825 31.8499C62.6666 32.0346 62.4005 32.2485 62.0072 32.4799C61.2232 32.9411 60.0379 33.4157 58.5209 33.87C55.4945 34.7763 51.2464 35.5719 46.4992 36.0338C41.7521 36.4958 37.431 36.5341 34.2868 36.2283C32.7106 36.075 31.4561 35.8378 30.5979 35.5364C30.1674 35.3852 29.8649 35.2266 29.674 35.0759C29.4834 34.9256 29.4489 34.8204 29.4441 34.7706C29.4393 34.7206 29.4531 34.6105 29.6108 34.4266C29.7692 34.2421 30.0356 34.0288 30.4287 33.7976C31.2127 33.3364 32.3978 32.8618 33.9149 32.4075C36.9412 31.5012 41.1887 30.7058 45.9357 30.2438Z" fill="#DE76B2" stroke="#F789C8"/>
<path d="M34.3298 33.4621C35.5651 32.7943 38.5658 32.2194 39.9117 32.0154C39.4187 31.9949 36.5846 32.4487 36.502 32.4704C36.4195 32.4922 31.8171 33.3918 32.1677 34.3844C32.4481 35.1785 34.4873 35.3131 35.4719 35.2812C34.9216 35.2526 33.7387 35.1131 33.4087 34.7838C32.9961 34.3722 33.198 34.0103 34.3298 33.4621Z" fill="#FFB8E1"/>
<path d="M59.1817 33.8477C56.0912 33.8985 51.7135 33.4126 46.9616 32.3296C45.4217 31.9787 43.9444 31.5878 42.5566 31.1735L43.9231 25.1778L44.3956 25.2665L59.9427 28.1707L60.4538 28.2662L59.1817 33.8477Z" fill="#B2DE76"/>
<path d="M34.6489 28.2243C32.9681 27.3647 31.8328 26.5377 31.4364 25.8485C31.4341 25.8447 31.4322 25.8408 31.43 25.837C31.3695 25.7298 31.3263 25.6265 31.3024 25.5265C30.6325 23.5217 31.9862 20.1611 32.7022 20.0262C33.9503 19.7928 35.2731 19.641 36.6215 19.5692L34.6489 28.2243Z" fill="#B2DE76"/>
<path d="M35.7794 21.3531L44.7292 23.7023L45.197 23.825L43.456 31.464C39.3781 30.3369 35.9519 28.9804 33.7947 27.7367L35.2794 21.2221L35.7794 21.3531Z" fill="#D2FB9B"/>
<path d="M61.1988 25.2894C62.3185 25.9119 63.3837 26.5893 64.3566 27.3032C64.9222 27.7183 64.7235 31.0885 63.392 32.6913C62.7932 34.0928 57.2039 34.2797 50.1363 33.0406C50.6431 32.9467 51.146 32.8442 51.6394 32.7301C53.3712 32.3296 54.9637 31.8049 56.2055 31.1356C57.4561 30.4614 58.2827 29.6773 58.6018 28.7911C59.2188 27.0763 60.1611 25.9688 61.1988 25.2894Z" fill="#6F9739"/>
<path d="M49.0506 21.2592C53.4414 22.2598 57.3234 23.5128 60.048 24.7231C61.4142 25.33 62.4656 25.916 63.1423 26.4399C63.4817 26.7027 63.7038 26.9317 63.8277 27.12C63.9508 27.3071 63.9461 27.4041 63.9379 27.4406C63.9297 27.4766 63.8921 27.5661 63.6997 27.6817C63.5064 27.7978 63.2069 27.9088 62.7871 27.9986C61.9502 28.1776 60.7487 28.2501 59.2545 28.2051C56.2745 28.1153 52.2329 27.5624 47.8421 26.5617C43.4514 25.561 39.5693 24.3081 36.8447 23.0977C35.4786 22.4909 34.4271 21.9049 33.7504 21.3809C33.4111 21.1181 33.1901 20.8884 33.0662 20.7001C32.9427 20.5122 32.9468 20.4154 32.9551 20.3793C32.9635 20.343 33.0022 20.2537 33.1943 20.1384C33.3875 20.0225 33.6864 19.912 34.1057 19.8222C34.9426 19.6433 36.1441 19.5707 37.6383 19.6157C40.6183 19.7055 44.6599 20.2585 49.0506 21.2592Z" fill="#B2DE76" stroke="#D2FB9B"/>
<path d="M37.0943 20.4227C38.5504 20.0393 41.6891 20.385 43.0764 20.6058C42.6044 20.4089 39.674 19.9734 39.5854 19.9711C39.4968 19.9688 34.6761 19.4603 34.6396 20.7931C34.6105 21.8594 36.5436 22.7351 37.5138 23.0396C36.9892 22.8128 35.8912 22.2299 35.6953 21.7132C35.4504 21.0673 35.7844 20.6964 37.0943 20.4227Z" fill="#E5FAC8"/>
<path d="M15 42.5V40L25 41.5L15 42.5Z" fill="#6E4A03"/>
<path d="M76.1738 28L77.1688 30.2935L67.398 32.8976L76.1738 28Z" fill="#6E4A03"/>
<path d="M14.5 36L13 39L24 40.5L14.5 36Z" fill="#6E4A03"/>
<path d="M76.5463 33.3037L76.6882 31.3761L66 34.3783L76.5463 33.3037Z" fill="#6E4A03"/>
  </svg>
</svg>